HIERARCHY
ROOT root
{
	OFFSET 0.000000 0.000000 0.000000
	CHANNELS 6 Xposition Yposition Zposition Zrotation Yrotation Xrotation
	JOINT lhip
	{
		OFFSET 0.058581 -0.082280 -0.017664
		CHANNELS 3 Zrotation Yrotation Xrotation
		JOINT lknee
		{
			OFFSET 0.043451 -0.386469 0.008037
			CHANNELS 3 Zrotation Yrotation Xrotation
			JOINT lankle
			{
				OFFSET -0.014790 -0.426874 -0.037428
				CHANNELS 3 Zrotation Yrotation Xrotation
				JOINT ltoe
				{
					OFFSET 0.041054 -0.060286 0.122042
					CHANNELS 3 Zrotation Yrotation Xrotation
					End Site
					{
						OFFSET 0.000000 0.000000 0.000000
					}
				}
			}
		}
	}
	JOINT rhip
	{
		OFFSET -0.060310 -0.090513 -0.013543
		CHANNELS 3 Zrotation Yrotation Xrotation
		JOINT rknee
		{
			OFFSET -0.043257 -0.383688 -0.004843
			CHANNELS 3 Zrotation Yrotation Xrotation
			JOINT rankle
			{
				OFFSET 0.019056 -0.420046 -0.034562
				CHANNELS 3 Zrotation Yrotation Xrotation
				JOINT rtoe
				{
					OFFSET -0.034840 -0.062106 0.130323
					CHANNELS 3 Zrotation Yrotation Xrotation
					End Site
					{
						OFFSET 0.000000 0.000000 0.000000
					}
				}
			}
		}
	}
	JOINT lowerback
	{
		OFFSET 0.004439 0.124404 -0.038385
		CHANNELS 3 Zrotation Yrotation Xrotation
		JOINT upperback
		{
			OFFSET 0.004488 0.137956 0.026820
			CHANNELS 3 Zrotation Yrotation Xrotation
			JOINT chest
			{
				OFFSET -0.002265 0.056032 0.002855
				CHANNELS 3 Zrotation Yrotation Xrotation
				JOINT lowerneck
				{
					OFFSET -0.013390 0.211636 -0.033468
					CHANNELS 3 Zrotation Yrotation Xrotation
					JOINT upperneck
					{
						OFFSET 0.010113 0.088937 0.050410
						CHANNELS 3 Zrotation Yrotation Xrotation
						End Site
						{
							OFFSET 0.000000 0.000000 0.000000
						}
					}
				}
				JOINT lclavicle
				{
					OFFSET 0.071702 0.114000 -0.018898
					CHANNELS 3 Zrotation Yrotation Xrotation
					JOINT lshoulder
					{
						OFFSET 0.122921 0.045205 -0.019046
						CHANNELS 3 Zrotation Yrotation Xrotation
						JOINT lelbow
						{
							OFFSET 0.255332 -0.015649 -0.022946
							CHANNELS 3 Zrotation Yrotation Xrotation
							JOINT lwrist
							{
								OFFSET 0.265709 0.012698 -0.007375
								CHANNELS 3 Zrotation Yrotation Xrotation
								End Site
								{
									OFFSET 0.000000 0.000000 0.000000
								}
							}
						}
					}
				}
				JOINT rclavicle
				{
					OFFSET -0.082954 0.112472 -0.023707
					CHANNELS 3 Zrotation Yrotation Xrotation
					JOINT rshoulder
					{
						OFFSET -0.113228 0.046853 -0.008472
						CHANNELS 3 Zrotation Yrotation Xrotation
						JOINT relbow
						{
							OFFSET -0.260127 -0.014369 -0.031269
							CHANNELS 3 Zrotation Yrotation Xrotation
							JOINT rwrist
							{
								OFFSET -0.269108 0.006794 -0.006027
								CHANNELS 3 Zrotation Yrotation Xrotation
								End Site
								{
									OFFSET 0.000000 0.000000 0.000000
								}
							}
						}
					}
				}
			}
		}
	}
}
MOTION
Frames: 14
Frame Time: 0.033333
-0.021517 -0.366957 1.001373 1.237191 -4.920268 82.486049 8.198484 -2.102554 -31.234042 -5.384833 17.256081 119.557662 -0.007639 2.611456 -23.276761 0.000000 -0.000000 0.000000 1.366347 -4.338521 -5.515506 1.365350 -2.525336 29.845373 0.072182 -4.067281 -13.848679 0.000000 -0.000000 0.000000 0.351045 6.582875 26.605109 0.509767 2.915644 -6.247220 -0.610940 2.183829 4.929365 -4.623446 12.087172 7.654555 -4.122140 12.892345 20.893440 -27.043688 11.996475 -1.147626 -57.573765 0.990558 3.409957 9.562509 -44.880710 8.880802 2.855017 -6.351156 -6.941174 27.738559 -4.936252 2.446379 54.849822 3.544064 9.064346 -15.778050 33.459276 -4.007515 3.887894 1.265729 -6.971176 
-0.021559 -0.381855 1.012422 0.568649 -5.294588 82.111601 7.886828 -2.668274 -32.678652 -4.476201 16.293066 114.703280 -0.024436 3.392888 -23.060381 0.000000 -0.000000 0.000000 1.348227 -5.137337 -2.980200 0.556386 -1.606360 27.263385 1.001218 -3.845477 -11.486899 0.000000 -0.000000 0.000000 0.330311 7.490649 26.921825 0.191181 2.712568 -6.283933 -0.404525 2.587833 4.853983 -5.051141 12.601238 8.185997 -4.064506 13.788286 19.697098 -26.746505 11.772326 -1.020613 -57.221011 1.022581 3.385923 8.844177 -44.756279 10.604846 1.967588 -6.562542 -6.587987 27.308908 -4.812723 2.563639 55.324445 3.329811 8.890301 -16.278975 32.869482 -4.582789 3.924156 1.288473 -7.335095 
-0.020750 -0.395730 1.019293 0.005472 -5.579257 82.036677 7.156272 -3.332849 -33.975336 -4.675221 15.353235 106.448889 0.344934 4.450421 -20.811752 0.000000 -0.000000 0.000000 1.095693 -5.895243 -0.831854 0.394803 -0.896382 24.978612 1.430290 -3.859265 -10.182057 0.000000 -0.000000 0.000000 0.377477 8.487345 26.489965 -0.101728 2.886363 -6.183168 -0.183346 2.622708 5.223876 -5.567236 13.086567 8.653257 -3.811463 14.549576 18.959174 -26.748454 11.317706 -1.090062 -56.625514 0.902149 3.664327 8.595063 -44.758737 11.364788 1.438604 -6.543540 -5.980208 27.235035 -4.586652 2.591175 55.081338 3.397560 8.783656 -16.285579 32.387729 -4.720406 4.289243 1.154518 -7.112737 
-0.020154 -0.413941 1.022192 -0.991259 -5.582274 81.443345 6.149520 -3.067832 -32.671281 -6.933580 13.344455 90.696622 -0.458770 4.798056 -15.579782 0.000000 -0.000000 0.000000 0.635598 -7.250167 2.080859 0.511249 -0.389632 23.076702 1.555690 -3.012726 -9.871526 0.000000 -0.000000 0.000000 0.843689 8.867878 26.495956 -0.758046 3.242418 -5.597465 -0.141986 3.165577 4.988895 -5.780310 14.189611 8.922135 -3.665377 15.413002 19.158027 -26.717610 11.097565 -2.040029 -55.833053 1.422020 4.050217 8.705066 -44.911591 10.585803 1.381043 -6.574121 -6.266036 26.691001 -3.685005 2.779966 55.131608 3.615877 8.840491 -15.405302 31.451680 -5.170746 4.290048 1.504573 -6.534780 
-0.019452 -0.425095 1.021234 -1.678110 -5.237145 81.419267 5.456323 -2.938157 -30.700436 -8.076183 11.440909 78.890756 -1.801703 5.096393 -12.326603 0.000000 -0.000000 0.000000 0.510966 -7.607129 3.077348 1.001744 -0.222326 22.897630 1.533872 -2.458093 -10.260770 0.000000 -0.000000 0.000000 1.329641 8.780353 25.869005 -1.056695 3.559038 -4.871889 -0.165085 3.690785 4.652471 -5.929269 15.385553 9.366729 -3.735531 15.902559 19.215786 -26.935995 11.101959 -2.775008 -55.526156 1.818479 4.231333 9.398450 -44.878832 9.287063 1.130047 -6.503778 -6.355262 26.610224 -3.204363 3.009116 54.752919 3.852955 8.701937 -14.890583 31.226188 -5.289968 4.129180 1.592216 -6.194226 
-0.018704 -0.440825 1.017243 -2.306411 -4.717427 81.558556 4.305401 -3.017355 -26.432727 -8.636991 8.700274 61.038174 -2.302148 6.264028 -9.529170 0.000000 -0.000000 0.000000 0.626947 -7.697201 3.883169 1.568680 0.279941 23.364491 1.509276 -2.356370 -11.187936 0.000000 -0.000000 0.000000 1.710686 8.495115 24.807092 -1.362762 4.188292 -4.254641 -0.074841 4.007426 4.359412 -6.026860 16.718056 9.785829 -3.963276 16.854890 19.387128 -27.194399 11.723195 -3.733803 -55.353773 2.051180 4.371764 10.335532 -44.670200 7.584084 0.618611 -6.122059 -6.585216 26.626833 -3.121453 3.002205 54.365474 4.304661 9.050579 -14.563985 30.996499 -5.871144 4.509967 1.896323 -5.500790 
-0.017869 -0.457045 1.010924 -2.307616 -3.964932 82.251734 3.156670 -3.567545 -21.799924 -7.423464 8.157727 43.280810 -1.144624 10.546123 -4.370448 0.000000 -0.000000 0.000000 0.937813 -7.055781 3.729578 2.323067 -0.939871 24.632520 1.188692 -2.269648 -12.594352 0.000000 -0.000000 0.000000 1.993756 7.863610 22.595115 -0.928478 4.709194 -2.918627 -0.663111 4.163269 3.955648 -4.536924 19.614259 10.265025 -5.247095 16.061306 19.887134 -27.785226 13.078621 -4.040449 -54.787451 1.174861 6.150845 12.699727 -44.096247 3.901241 1.909228 -5.347108 -9.033217 27.563719 -4.517539 2.885304 53.515347 5.884221 11.721338 -15.332493 30.582736 -5.553238 4.832575 2.516073 -7.881566 
-0.017419 -0.474118 1.003261 -1.563575 -2.955736 82.621549 1.387654 -2.472017 -17.446715 -5.678049 9.073533 30.243141 -0.534059 12.776730 -0.960355 0.000000 -0.000000 0.000000 1.857949 -6.552460 3.533901 2.766737 -1.943199 26.632333 0.919097 -2.753834 -13.892335 0.000000 -0.000000 0.000000 2.305802 6.907213 20.931025 -0.826919 4.853166 -2.516003 -0.520624 4.104050 3.921008 -4.373497 20.693205 10.468549 -5.689142 17.269047 19.931181 -27.849083 13.522493 -4.078824 -55.120055 1.444615 6.109729 14.036255 -43.625065 1.704249 2.245544 -4.535078 -9.005410 27.380963 -4.803888 2.805737 53.757263 6.372203 12.270808 -15.779426 30.501209 -6.430722 4.539715 2.793312 -7.356284 
-0.017411 -0.491887 0.994041 -0.082580 -1.639178 83.095987 -0.225887 -0.904590 -13.944260 -5.112733 9.274023 22.473003 2.076671 14.018790 -0.583333 0.000000 -0.000000 0.000000 2.894372 -6.139040 2.515094 3.384480 -3.609464 29.895126 0.956632 -3.015744 -14.599522 0.000000 -0.000000 0.000000 2.442721 5.639540 19.289985 -0.445961 4.906861 -2.467522 -0.271540 4.046224 3.885088 -3.917740 21.535485 10.836927 -6.073385 18.465723 19.960478 -27.757826 13.623210 -3.962318 -55.534722 1.768700 5.812795 14.548594 -42.616018 0.480373 1.979964 -3.883214 -8.656198 27.233867 -5.050595 2.841450 53.968189 6.470841 12.380149 -16.262279 30.765805 -7.168430 4.568474 2.861850 -7.300005 
-0.017972 -0.514034 0.983903 3.476797 -0.660432 83.175981 -2.896876 1.431259 -10.605856 -2.732357 5.096164 18.633460 6.873067 14.389311 -6.245667 0.000000 -0.000000 0.000000 2.681063 -7.187721 0.386587 4.126230 -6.116294 36.265890 3.685927 -2.207103 -13.368830 0.000000 -0.000000 0.000000 1.785234 4.005234 18.739410 -0.289175 4.968939 -4.677101 0.363822 3.333098 5.128236 -2.503295 21.707853 12.027881 -7.564408 19.851101 19.388474 -27.171383 14.485560 -2.137522 -56.090900 -1.474450 5.057703 13.883449 -39.329183 1.361973 -1.648357 -2.952018 -8.110601 27.316783 -6.151657 2.406849 54.015250 7.618341 13.462998 -15.271409 29.565776 -10.132323 3.348106 3.142123 -7.144287 
-0.018893 -0.529596 0.978512 6.780392 -0.620283 83.077432 -3.357896 0.391302 -9.033029 -2.960751 1.491900 17.694726 7.945390 14.695680 -8.725622 0.000000 -0.000000 0.000000 1.248747 -7.909567 -2.248887 4.795953 -8.231129 42.849156 6.386088 -1.026761 -9.154085 0.000000 -0.000000 0.000000 1.072268 3.767124 18.584482 -0.226900 4.268314 -4.873474 0.374086 2.385802 4.922966 -2.125045 22.366343 12.535122 -7.783048 20.343049 19.262310 -26.674438 13.628369 -1.853428 -56.291259 -1.919696 5.025214 13.763973 -37.221292 1.347827 -2.257813 -2.535805 -8.128491 27.943711 -6.615948 1.993527 54.375004 7.877437 13.119703 -15.409527 28.817918 -11.226132 3.574779 2.950557 -7.644439 
-0.019915 -0.541735 0.977211 9.670280 -1.104229 82.769852 -3.456258 -1.402733 -8.840806 -3.974759 0.543470 19.005166 8.299511 14.395712 -9.526111 0.000000 -0.000000 0.000000 -0.526679 -7.650378 -5.500934 5.538418 -8.789234 49.662037 8.413010 -0.589577 -3.437010 0.000000 -0.000000 0.000000 0.438247 3.928693 19.004626 -0.453703 4.083204 -4.822893 -0.027898 1.927836 4.737813 -2.279666 22.838287 12.773688 -7.843932 20.850735 19.118589 -26.404644 12.624911 -1.756872 -56.368459 -2.815445 5.249260 14.082563 -35.496925 1.057531 -3.308869 -2.370943 -8.058745 28.852415 -7.097846 1.731944 54.749908 7.974164 12.988543 -15.952331 28.109946 -12.986034 3.671413 2.625087 -8.619401 
-0.021849 -0.552234 0.978764 12.896805 -0.884112 82.010130 -3.448068 -1.927508 -7.856694 -4.402547 -2.530728 19.685214 8.395868 13.946796 -9.986260 0.000000 -0.000000 0.000000 -0.553989 -6.211672 -7.865975 6.095045 -8.039273 55.094709 9.629619 0.030315 -1.395515 0.000000 -0.000000 0.000000 0.623881 3.036905 19.609513 -0.500021 4.495410 -4.253349 -0.482530 1.844039 4.778734 -2.922496 23.779008 12.967823 -8.630254 21.138865 18.790512 -26.473284 12.316591 -2.392717 -56.959888 -3.224098 5.764117 14.870901 -35.443045 0.472364 -3.564935 -2.059001 -8.186559 28.537171 -6.764814 2.151231 55.397547 8.031272 13.133100 -16.026597 27.522805 -14.114309 3.913081 2.405632 -9.554239 
-0.024760 -0.561902 0.981786 16.567893 -0.612179 81.092795 -4.053778 -2.289465 -5.891940 -3.865805 -5.520844 18.793024 8.414752 13.742845 -9.784858 0.000000 -0.000000 0.000000 0.153925 -4.185338 -9.164584 5.636845 -7.118427 58.565601 7.947769 -1.604131 -4.935512 0.000000 -0.000000 0.000000 0.857505 2.068747 19.833930 -0.394846 4.979940 -3.329837 -0.855393 2.364550 5.008079 -3.098659 23.470921 13.394237 -9.086110 20.472173 18.861789 -26.396419 11.834743 -2.338494 -57.491786 -3.573772 6.385225 15.141860 -36.701847 0.441050 -3.355979 -1.863427 -8.858694 28.232827 -5.804963 2.921636 55.317974 7.378059 13.312239 -15.944115 27.657173 -14.004134 4.362713 2.183299 -9.777165 
